<svg xmlns="http://www.w3.org/2000/svg" width="600.001" height="75" viewBox="0 0 600.001 75">
  <g id="Group_54" data-name="Group 54" transform="translate(-1240 -1673.203)">
    <path id="discord-social-icon" d="M70,75H5a5.006,5.006,0,0,1-5-5V5A5.006,5.006,0,0,1,5,0H70a5.006,5.006,0,0,1,5,5V70A5.006,5.006,0,0,1,70,75ZM30.288,18.184a22.762,22.762,0,0,0-12.877,4.757,52.793,52.793,0,0,0-3.379,7.7,56.811,56.811,0,0,0-3.379,18.583,12.538,12.538,0,0,0,3.156,3.288,18.544,18.544,0,0,0,10.857,3.473l.01-.014c.263-.347,1.641-2.159,3-3.737a17.15,17.15,0,0,1-6.168-3.285,10.273,10.273,0,0,1-1.844-1.971h0a.1.1,0,0,1,.023.01,13.856,13.856,0,0,1,1.23.738h.225a.284.284,0,0,1,.215.1l.01.01v.023a.285.285,0,0,0,.224.112l.348.143c1.141.47,2.218.913,3.134,1.354a30.65,30.65,0,0,0,6.739,2.007A42.76,42.76,0,0,0,38,51.951a35.509,35.509,0,0,0,5.836-.475l.154-.035a34.049,34.049,0,0,0,6.584-1.969c.4-.206.827-.411,1.278-.628a36.016,36.016,0,0,0,3.952-2.13s0,.005-.005.011a10.343,10.343,0,0,1-1.869,1.96,17.611,17.611,0,0,1-6.381,3.285c1.222,1.725,2.959,3.724,2.976,3.744a18.78,18.78,0,0,0,13.983-6.024c.266-.279.426-.447.487-.447a.023.023,0,0,1,.019.009,56.562,56.562,0,0,0-3.4-18.574,52.441,52.441,0,0,0-3.4-7.708A22.762,22.762,0,0,0,45.4,18.254l-.691.685a36.235,36.235,0,0,1,8.668,3.72,19.077,19.077,0,0,1,2.848,2.035A40.63,40.63,0,0,0,42.2,20.436a26.248,26.248,0,0,0-4.048-.287c-1.77,0-3.41.13-5.219.287h-.749c-1.754,0-5.439.723-10.52,2.752-1.721.748-2.741,1.252-2.751,1.257s0-.005.009-.011a17.333,17.333,0,0,1,2.9-2.115,32.535,32.535,0,0,1,9.109-3.628l-.506-.506S30.379,18.184,30.288,18.184ZM46.2,44.726a5.008,5.008,0,0,1,0-10v-.012a5.014,5.014,0,0,1,0,10.015Zm-17.023,0a5.008,5.008,0,0,1,0-10l.015-.012a5.015,5.015,0,0,1-.015,10.015Z" transform="translate(1765.001 1673.203)" fill="#ff005c"/>
    <path id="telegram-social-icon" d="M70,75H5a5.006,5.006,0,0,1-5-5V5A5.006,5.006,0,0,1,5,0H70a5.006,5.006,0,0,1,5,5V70A5.006,5.006,0,0,1,70,75ZM39.406,50.594h0l11.861,8.741a4.006,4.006,0,0,0,1.907.6c1.193,0,2-.879,2.389-2.612L63.349,20.6a3.76,3.76,0,0,0-.423-3.185,2.072,2.072,0,0,0-1.675-.753,3.382,3.382,0,0,0-1.184.23L14.3,34.528c-1.548.606-2.42,1.4-2.393,2.166.023.654.7,1.238,1.864,1.6l11.7,3.662L52.65,24.843a2.43,2.43,0,0,1,1.272-.45c.282,0,.486.094.546.252.069.18-.049.418-.332.671L32.15,45.182,31.3,57.263A2.993,2.993,0,0,0,33.682,56.1l5.723-5.5Z" transform="translate(1660 1673.203)" fill="#ff005c"/>
    <path id="facebook-social-icon" d="M70,75H5a5.006,5.006,0,0,1-5-5V5A5.006,5.006,0,0,1,5,0H70a5.006,5.006,0,0,1,5,5V70A5.006,5.006,0,0,1,70,75ZM23.81,31.555v9.321H32V63.409H42.073V40.876h7.514l1.43-9.321H42.073V25.506A5.218,5.218,0,0,1,43.2,22.032a5.19,5.19,0,0,1,4.13-1.562h4.066V12.534a50.331,50.331,0,0,0-7.218-.63C36.55,11.9,32,16.595,32,24.451v7.1Z" transform="translate(1555 1673.203)" fill="#ff005c"/>
    <path id="instagram-social-icon" d="M70,75H5a5.006,5.006,0,0,1-5-5V5A5.006,5.006,0,0,1,5,0H70a5.006,5.006,0,0,1,5,5V70A5.006,5.006,0,0,1,70,75ZM38.506,11.905c-4.737,0-8.942.072-10.973.187-4.97.236-8.407,1.557-11.145,4.285-2.721,2.711-4.046,6.148-4.3,11.145-.25,4.41-.25,17.536,0,21.946.236,4.982,1.561,8.419,4.3,11.145s6.169,4.047,11.145,4.3c2.027.115,6.232.187,10.973.187s8.947-.072,10.974-.187c4.983-.236,8.42-1.561,11.145-4.3s4.047-6.159,4.3-11.145c.25-4.407.25-17.526,0-21.934-.236-4.982-1.561-8.419-4.3-11.145s-6.158-4.046-11.145-4.3C47.448,11.977,43.243,11.905,38.506,11.905Zm4.708,48.431c-1,0-1.958-.01-2.806-.018-.692-.007-1.345-.014-1.9-.014s-1.178.006-1.852.013c-.827.008-1.764.017-2.737.017-3.566,0-8.595-.114-11.09-1.1a8.987,8.987,0,0,1-5.056-5.056c-1.191-3-1.125-9.491-1.082-13.784.007-.691.014-1.344.014-1.894s-.006-1.179-.013-1.855c-.041-4.309-.1-10.821,1.081-13.824a8.987,8.987,0,0,1,5.056-5.056c2.486-.986,7.456-1.1,10.977-1.1,1,0,1.958.01,2.806.018.692.007,1.345.014,1.9.014s1.179-.006,1.855-.013c.828-.008,1.767-.017,2.742-.017,3.563,0,8.588.114,11.081,1.1a8.983,8.983,0,0,1,5.056,5.056c1.191,3,1.125,9.491,1.082,13.784-.007.691-.014,1.344-.014,1.894s.007,1.2.014,1.895c.043,4.3.109,10.791-1.082,13.784a8.984,8.984,0,0,1-5.056,5.056C51.7,60.222,46.735,60.336,43.214,60.336Zm-4.7-35.473A13.637,13.637,0,1,0,52.15,38.5,13.653,13.653,0,0,0,38.512,24.863Zm14.2-3.739a3.181,3.181,0,1,0,3.181,3.181A3.185,3.185,0,0,0,52.708,21.125Zm-14.2,26.242A8.866,8.866,0,1,1,47.378,38.5,8.876,8.876,0,0,1,38.512,47.367Z" transform="translate(1450 1673.203)" fill="#ff005c"/>
    <path id="twitter-social-icon" d="M70,75H5a5.006,5.006,0,0,1-5-5V5A5.006,5.006,0,0,1,5,0H70a5.006,5.006,0,0,1,5,5V70A5.006,5.006,0,0,1,70,75ZM11.905,52.1h0a28.562,28.562,0,0,0,15.484,4.525c17.959,0,28.691-14.587,28.691-28.69,0-.43,0-.874-.032-1.311a21.534,21.534,0,0,0,5.057-5.213A20.153,20.153,0,0,1,55.3,22.973a10.045,10.045,0,0,0,4.433-5.557,19.965,19.965,0,0,1-6.4,2.434,10.094,10.094,0,0,0-17.452,6.9,11.333,11.333,0,0,0,.25,2.31,28.587,28.587,0,0,1-11.672-3.146,28.428,28.428,0,0,1-9.12-7.406A9.965,9.965,0,0,0,13.964,23.6a10.075,10.075,0,0,0,4.5,8.4,10.2,10.2,0,0,1-4.558-1.28v.124a10.126,10.126,0,0,0,8.086,9.9,10.57,10.57,0,0,1-2.653.344,12.647,12.647,0,0,1-1.9-.157,10.107,10.107,0,0,0,9.428,6.994A20.109,20.109,0,0,1,14.34,52.224,20.666,20.666,0,0,1,11.905,52.1Z" transform="translate(1345 1673.203)" fill="#ff005c"/>
    <path id="medium-social-icon" d="M70,75H5a5.006,5.006,0,0,1-5-5V5A5.006,5.006,0,0,1,5,0H70a5.006,5.006,0,0,1,5,5V70A5.006,5.006,0,0,1,70,75ZM47.642,28.1h0V51.009c0,.61,0,.72-.4,1.122l-4.068,3.95V56.9H62.928v-.854L58.994,52.2a1.15,1.15,0,0,1-.452-1.121V22.734a1.178,1.178,0,0,1,.452-1.121l4.018-3.85v-.837H49.083l-9.927,24.76L27.873,16.908H13.258v.854l4.7,5.674a1.9,1.9,0,0,1,.635,1.641V47.344a2.574,2.574,0,0,1-.686,2.209l-5.29,6.412v.854H27.655v-.854l-5.29-6.412a2.651,2.651,0,0,1-.737-2.209V28.092L34.8,56.819h1.524Z" transform="translate(1240 1673.203)" fill="#ff005c"/>
  </g>
</svg>
